<svg id="svg" version="1.1" xmlns="http://www.w3.org/2000/svg" xmlns:xlink="http://www.w3.org/1999/xlink" width="400" height="400" viewBox="0, 0, 400,400"><g id="svgg"><path id="path1" d="M76.200 0.267 C 71.694 0.837,66.568 1.726,66.400 1.967 C 66.290 2.124,64.625 2.579,62.700 2.978 C 60.775 3.376,59.200 3.824,59.200 3.974 C 59.200 4.123,57.940 4.573,56.400 4.972 C 54.860 5.371,53.600 5.839,53.600 6.012 C 53.600 6.184,52.610 6.637,51.400 7.018 C 50.190 7.398,49.200 7.840,49.200 8.000 C 49.200 8.160,48.345 8.614,47.300 9.009 C 46.255 9.404,45.310 9.852,45.200 10.004 C 45.090 10.157,44.280 10.617,43.400 11.028 C 42.520 11.438,41.451 12.095,41.025 12.487 C 40.598 12.879,40.022 13.200,39.744 13.200 C 39.467 13.200,39.096 13.425,38.920 13.700 C 38.744 13.975,37.990 14.540,37.245 14.955 C 36.499 15.371,35.566 16.001,35.170 16.355 C 34.775 16.710,33.964 17.360,33.368 17.800 C 32.773 18.240,31.853 19.005,31.325 19.500 C 30.796 19.995,30.237 20.404,30.082 20.410 C 29.733 20.422,20.400 29.781,20.400 30.119 C 20.400 30.254,19.995 30.796,19.500 31.325 C 19.005 31.853,18.240 32.773,17.800 33.368 C 17.360 33.964,16.710 34.775,16.355 35.170 C 16.001 35.566,15.371 36.499,14.955 37.245 C 14.540 37.990,13.975 38.744,13.700 38.920 C 13.425 39.096,13.200 39.467,13.200 39.744 C 13.200 40.022,12.879 40.598,12.487 41.025 C 12.095 41.451,11.438 42.520,11.028 43.400 C 10.617 44.280,10.157 45.090,10.004 45.200 C 9.852 45.310,9.404 46.255,9.009 47.300 C 8.614 48.345,8.160 49.200,8.000 49.200 C 7.840 49.200,7.398 50.190,7.018 51.400 C 6.637 52.610,6.184 53.600,6.012 53.600 C 5.839 53.600,5.371 54.860,4.972 56.400 C 4.573 57.940,4.123 59.200,3.974 59.200 C 3.824 59.200,3.376 60.775,2.978 62.700 C 2.579 64.625,2.124 66.290,1.967 66.400 C -0.827 68.349,-0.827 331.651,1.967 333.600 C 2.124 333.710,2.579 335.375,2.978 337.300 C 3.376 339.225,3.824 340.800,3.974 340.800 C 4.123 340.800,4.573 342.060,4.972 343.600 C 5.371 345.140,5.839 346.400,6.012 346.400 C 6.184 346.400,6.637 347.390,7.018 348.600 C 7.398 349.810,7.840 350.800,8.000 350.800 C 8.160 350.800,8.614 351.655,9.009 352.700 C 9.404 353.745,9.852 354.690,10.004 354.800 C 10.157 354.910,10.617 355.720,11.028 356.600 C 11.438 357.480,12.095 358.549,12.487 358.975 C 12.879 359.402,13.200 359.978,13.200 360.256 C 13.200 360.533,13.425 360.904,13.700 361.080 C 13.975 361.256,14.540 362.010,14.955 362.755 C 15.371 363.501,16.001 364.434,16.355 364.830 C 16.710 365.225,17.360 366.036,17.800 366.632 C 18.240 367.227,19.005 368.147,19.500 368.675 C 19.995 369.204,20.400 369.746,20.400 369.881 C 20.400 370.219,29.733 379.578,30.082 379.590 C 30.237 379.596,30.796 380.005,31.325 380.500 C 31.853 380.995,32.773 381.760,33.368 382.200 C 33.964 382.640,34.775 383.290,35.170 383.645 C 35.566 383.999,36.499 384.629,37.245 385.045 C 37.990 385.460,38.744 386.025,38.920 386.300 C 39.096 386.575,39.467 386.800,39.744 386.800 C 40.022 386.800,40.598 387.121,41.025 387.513 C 41.451 387.905,42.520 388.562,43.400 388.972 C 44.280 389.383,45.090 389.843,45.200 389.996 C 45.310 390.148,46.255 390.596,47.300 390.991 C 48.345 391.386,49.200 391.840,49.200 392.000 C 49.200 392.160,50.190 392.602,51.400 392.982 C 52.610 393.363,53.600 393.816,53.600 393.988 C 53.600 394.161,54.860 394.629,56.400 395.028 C 57.940 395.427,59.200 395.877,59.200 396.026 C 59.200 396.176,60.775 396.624,62.700 397.022 C 64.625 397.421,66.290 397.876,66.400 398.033 C 68.349 400.827,331.651 400.827,333.600 398.033 C 333.710 397.876,335.375 397.421,337.300 397.022 C 339.225 396.624,340.800 396.176,340.800 396.026 C 340.800 395.877,342.060 395.427,343.600 395.028 C 345.140 394.629,346.400 394.161,346.400 393.988 C 346.400 393.816,347.390 393.363,348.600 392.982 C 349.810 392.602,350.800 392.160,350.800 392.000 C 350.800 391.840,351.655 391.386,352.700 390.991 C 353.745 390.596,354.690 390.148,354.800 389.996 C 354.910 389.843,355.720 389.383,356.600 388.972 C 357.480 388.562,358.549 387.905,358.975 387.513 C 359.402 387.121,359.978 386.800,360.256 386.800 C 360.533 386.800,360.904 386.575,361.080 386.300 C 361.256 386.025,362.010 385.460,362.755 385.045 C 363.501 384.629,364.434 383.999,364.830 383.645 C 365.225 383.290,366.036 382.640,366.632 382.200 C 367.227 381.760,368.147 380.995,368.675 380.500 C 369.204 380.005,369.763 379.596,369.918 379.590 C 370.267 379.578,379.600 370.219,379.600 369.881 C 379.600 369.746,380.005 369.204,380.500 368.675 C 380.995 368.147,381.760 367.227,382.200 366.632 C 382.640 366.036,383.290 365.225,383.645 364.830 C 383.999 364.434,384.629 363.501,385.045 362.755 C 385.460 362.010,386.025 361.256,386.300 361.080 C 386.575 360.904,386.800 360.533,386.800 360.256 C 386.800 359.978,387.121 359.402,387.513 358.975 C 387.905 358.549,388.562 357.480,388.972 356.600 C 389.383 355.720,389.843 354.910,389.996 354.800 C 390.148 354.690,390.596 353.745,390.991 352.700 C 391.386 351.655,391.840 350.800,392.000 350.800 C 392.160 350.800,392.602 349.810,392.982 348.600 C 393.363 347.390,393.816 346.400,393.988 346.400 C 394.161 346.400,394.629 345.140,395.028 343.600 C 395.427 342.060,395.877 340.800,396.026 340.800 C 396.176 340.800,396.624 339.225,397.022 337.300 C 397.421 335.375,397.876 333.710,398.033 333.600 C 400.827 331.651,400.827 68.349,398.033 66.400 C 397.876 66.290,397.421 64.625,397.022 62.700 C 396.624 60.775,396.176 59.200,396.026 59.200 C 395.877 59.200,395.427 57.940,395.028 56.400 C 394.629 54.860,394.161 53.600,393.988 53.600 C 393.816 53.600,393.363 52.610,392.982 51.400 C 392.602 50.190,392.160 49.200,392.000 49.200 C 391.840 49.200,391.386 48.345,390.991 47.300 C 390.596 46.255,390.148 45.310,389.996 45.200 C 389.843 45.090,389.383 44.280,388.972 43.400 C 388.562 42.520,387.905 41.451,387.513 41.025 C 387.121 40.598,386.800 40.022,386.800 39.744 C 386.800 39.467,386.575 39.096,386.300 38.920 C 386.025 38.744,385.460 37.990,385.045 37.245 C 384.629 36.499,383.999 35.566,383.645 35.170 C 383.290 34.775,382.640 33.964,382.200 33.368 C 381.760 32.773,380.995 31.853,380.500 31.325 C 380.005 30.796,379.596 30.237,379.590 30.082 C 379.578 29.733,370.219 20.400,369.881 20.400 C 369.746 20.400,369.204 19.995,368.675 19.500 C 368.147 19.005,367.227 18.240,366.632 17.800 C 366.036 17.360,365.225 16.710,364.830 16.355 C 364.434 16.001,363.501 15.371,362.755 14.955 C 362.010 14.540,361.256 13.975,361.080 13.700 C 360.904 13.425,360.533 13.200,360.256 13.200 C 359.978 13.200,359.402 12.879,358.975 12.487 C 358.549 12.095,357.480 11.438,356.600 11.028 C 355.720 10.617,354.910 10.157,354.800 10.004 C 354.690 9.852,353.745 9.404,352.700 9.009 C 351.655 8.614,350.800 8.160,350.800 8.000 C 350.800 7.840,349.810 7.398,348.600 7.018 C 347.390 6.637,346.400 6.184,346.400 6.012 C 346.400 5.839,345.140 5.371,343.600 4.972 C 342.060 4.573,340.800 4.123,340.800 3.974 C 340.800 3.824,339.225 3.376,337.300 2.978 C 335.375 2.579,333.710 2.126,333.600 1.970 C 333.490 1.814,331.600 1.355,329.400 0.950 C 325.706 0.270,81.385 -0.389,76.200 0.267 M310.480 225.796 C 373.115 234.055,397.311 314.656,349.625 356.200 C 304.715 395.326,233.518 369.039,225.796 310.480 C 219.239 260.754,260.754 219.239,310.480 225.796 M293.623 250.420 C 259.860 254.657,240.016 291.800,255.275 322.200 C 273.760 359.028,326.240 359.028,344.725 322.200 C 362.460 286.867,332.995 245.479,293.623 250.420 " stroke="none" fill="#ebebfb" fill-rule="evenodd"></path><path id="path0" d="M289.091 225.815 C 234.950 233.194,206.992 297.186,238.165 342.379 C 276.737 398.302,365.364 377.519,374.204 310.480 C 380.779 260.616,338.961 219.018,289.091 225.815 M309.800 250.991 C 349.046 259.396,363.419 307.021,335.220 335.220 C 303.766 366.674,250.296 344.517,250.228 300.000 C 250.180 268.504,279.385 244.477,309.800 250.991 " stroke="none" fill="#250d34" fill-rule="evenodd"></path><path id="path1" d="M76.200 0.267 C 71.694 0.837,66.568 1.726,66.400 1.967 C 66.290 2.124,64.625 2.579,62.700 2.978 C 60.775 3.376,59.200 3.824,59.200 3.974 C 59.200 4.123,57.940 4.573,56.400 4.972 C 54.860 5.371,53.600 5.839,53.600 6.012 C 53.600 6.184,52.610 6.637,51.400 7.018 C 50.190 7.398,49.200 7.840,49.200 8.000 C 49.200 8.160,48.345 8.614,47.300 9.009 C 46.255 9.404,45.310 9.852,45.200 10.004 C 45.090 10.157,44.280 10.617,43.400 11.028 C 42.520 11.438,41.451 12.095,41.025 12.487 C 40.598 12.879,40.022 13.200,39.744 13.200 C 39.467 13.200,39.096 13.425,38.920 13.700 C 38.744 13.975,37.990 14.540,37.245 14.955 C 36.499 15.371,35.566 16.001,35.170 16.355 C 34.775 16.710,33.964 17.360,33.368 17.800 C 32.773 18.240,31.853 19.005,31.325 19.500 C 30.796 19.995,30.237 20.404,30.082 20.410 C 29.733 20.422,20.400 29.781,20.400 30.119 C 20.400 30.254,19.995 30.796,19.500 31.325 C 19.005 31.853,18.240 32.773,17.800 33.368 C 17.360 33.964,16.710 34.775,16.355 35.170 C 16.001 35.566,15.371 36.499,14.955 37.245 C 14.540 37.990,13.975 38.744,13.700 38.920 C 13.425 39.096,13.200 39.467,13.200 39.744 C 13.200 40.022,12.879 40.598,12.487 41.025 C 12.095 41.451,11.438 42.520,11.028 43.400 C 10.617 44.280,10.157 45.090,10.004 45.200 C 9.852 45.310,9.404 46.255,9.009 47.300 C 8.614 48.345,8.160 49.200,8.000 49.200 C 7.840 49.200,7.398 50.190,7.018 51.400 C 6.637 52.610,6.184 53.600,6.012 53.600 C 5.839 53.600,5.371 54.860,4.972 56.400 C 4.573 57.940,4.123 59.200,3.974 59.200 C 3.824 59.200,3.376 60.775,2.978 62.700 C 2.579 64.625,2.124 66.290,1.967 66.400 C -0.827 68.349,-0.827 331.651,1.967 333.600 C 2.124 333.710,2.579 335.375,2.978 337.300 C 3.376 339.225,3.824 340.800,3.974 340.800 C 4.123 340.800,4.573 342.060,4.972 343.600 C 5.371 345.140,5.839 346.400,6.012 346.400 C 6.184 346.400,6.637 347.390,7.018 348.600 C 7.398 349.810,7.840 350.800,8.000 350.800 C 8.160 350.800,8.614 351.655,9.009 352.700 C 9.404 353.745,9.852 354.690,10.004 354.800 C 10.157 354.910,10.617 355.720,11.028 356.600 C 11.438 357.480,12.095 358.549,12.487 358.975 C 12.879 359.402,13.200 359.978,13.200 360.256 C 13.200 360.533,13.425 360.904,13.700 361.080 C 13.975 361.256,14.540 362.010,14.955 362.755 C 15.371 363.501,16.001 364.434,16.355 364.830 C 16.710 365.225,17.360 366.036,17.800 366.632 C 18.240 367.227,19.005 368.147,19.500 368.675 C 19.995 369.204,20.400 369.746,20.400 369.881 C 20.400 370.219,29.733 379.578,30.082 379.590 C 30.237 379.596,30.796 380.005,31.325 380.500 C 31.853 380.995,32.773 381.760,33.368 382.200 C 33.964 382.640,34.775 383.290,35.170 383.645 C 35.566 383.999,36.499 384.629,37.245 385.045 C 37.990 385.460,38.744 386.025,38.920 386.300 C 39.096 386.575,39.467 386.800,39.744 386.800 C 40.022 386.800,40.598 387.121,41.025 387.513 C 41.451 387.905,42.520 388.562,43.400 388.972 C 44.280 389.383,45.090 389.843,45.200 389.996 C 45.310 390.148,46.255 390.596,47.300 390.991 C 48.345 391.386,49.200 391.840,49.200 392.000 C 49.200 392.160,50.190 392.602,51.400 392.982 C 52.610 393.363,53.600 393.816,53.600 393.988 C 53.600 394.161,54.860 394.629,56.400 395.028 C 57.940 395.427,59.200 395.877,59.200 396.026 C 59.200 396.176,60.775 396.624,62.700 397.022 C 64.625 397.421,66.290 397.876,66.400 398.033 C 68.349 400.827,331.651 400.827,333.600 398.033 C 333.710 397.876,335.375 397.421,337.300 397.022 C 339.225 396.624,340.800 396.176,340.800 396.026 C 340.800 395.877,342.060 395.427,343.600 395.028 C 345.140 394.629,346.400 394.161,346.400 393.988 C 346.400 393.816,347.390 393.363,348.600 392.982 C 349.810 392.602,350.800 392.160,350.800 392.000 C 350.800 391.840,351.655 391.386,352.700 390.991 C 353.745 390.596,354.690 390.148,354.800 389.996 C 354.910 389.843,355.720 389.383,356.600 388.972 C 357.480 388.562,358.549 387.905,358.975 387.513 C 359.402 387.121,359.978 386.800,360.256 386.800 C 360.533 386.800,360.904 386.575,361.080 386.300 C 361.256 386.025,362.010 385.460,362.755 385.045 C 363.501 384.629,364.434 383.999,364.830 383.645 C 365.225 383.290,366.036 382.640,366.632 382.200 C 367.227 381.760,368.147 380.995,368.675 380.500 C 369.204 380.005,369.763 379.596,369.918 379.590 C 370.267 379.578,379.600 370.219,379.600 369.881 C 379.600 369.746,380.005 369.204,380.500 368.675 C 380.995 368.147,381.760 367.227,382.200 366.632 C 382.640 366.036,383.290 365.225,383.645 364.830 C 383.999 364.434,384.629 363.501,385.045 362.755 C 385.460 362.010,386.025 361.256,386.300 361.080 C 386.575 360.904,386.800 360.533,386.800 360.256 C 386.800 359.978,387.121 359.402,387.513 358.975 C 387.905 358.549,388.562 357.480,388.972 356.600 C 389.383 355.720,389.843 354.910,389.996 354.800 C 390.148 354.690,390.596 353.745,390.991 352.700 C 391.386 351.655,391.840 350.800,392.000 350.800 C 392.160 350.800,392.602 349.810,392.982 348.600 C 393.363 347.390,393.816 346.400,393.988 346.400 C 394.161 346.400,394.629 345.140,395.028 343.600 C 395.427 342.060,395.877 340.800,396.026 340.800 C 396.176 340.800,396.624 339.225,397.022 337.300 C 397.421 335.375,397.876 333.710,398.033 333.600 C 400.827 331.651,400.827 68.349,398.033 66.400 C 397.876 66.290,397.421 64.625,397.022 62.700 C 396.624 60.775,396.176 59.200,396.026 59.200 C 395.877 59.200,395.427 57.940,395.028 56.400 C 394.629 54.860,394.161 53.600,393.988 53.600 C 393.816 53.600,393.363 52.610,392.982 51.400 C 392.602 50.190,392.160 49.200,392.000 49.200 C 391.840 49.200,391.386 48.345,390.991 47.300 C 390.596 46.255,390.148 45.310,389.996 45.200 C 389.843 45.090,389.383 44.280,388.972 43.400 C 388.562 42.520,387.905 41.451,387.513 41.025 C 387.121 40.598,386.800 40.022,386.800 39.744 C 386.800 39.467,386.575 39.096,386.300 38.920 C 386.025 38.744,385.460 37.990,385.045 37.245 C 384.629 36.499,383.999 35.566,383.645 35.170 C 383.290 34.775,382.640 33.964,382.200 33.368 C 381.760 32.773,380.995 31.853,380.500 31.325 C 380.005 30.796,379.596 30.237,379.590 30.082 C 379.578 29.733,370.219 20.400,369.881 20.400 C 369.746 20.400,369.204 19.995,368.675 19.500 C 368.147 19.005,367.227 18.240,366.632 17.800 C 366.036 17.360,365.225 16.710,364.830 16.355 C 364.434 16.001,363.501 15.371,362.755 14.955 C 362.010 14.540,361.256 13.975,361.080 13.700 C 360.904 13.425,360.533 13.200,360.256 13.200 C 359.978 13.200,359.402 12.879,358.975 12.487 C 358.549 12.095,357.480 11.438,356.600 11.028 C 355.720 10.617,354.910 10.157,354.800 10.004 C 354.690 9.852,353.745 9.404,352.700 9.009 C 351.655 8.614,350.800 8.160,350.800 8.000 C 350.800 7.840,349.810 7.398,348.600 7.018 C 347.390 6.637,346.400 6.184,346.400 6.012 C 346.400 5.839,345.140 5.371,343.600 4.972 C 342.060 4.573,340.800 4.123,340.800 3.974 C 340.800 3.824,339.225 3.376,337.300 2.978 C 335.375 2.579,333.710 2.126,333.600 1.970 C 333.490 1.814,331.600 1.355,329.400 0.950 C 325.706 0.270,81.385 -0.389,76.200 0.267 M310.480 225.796 C 373.115 234.055,397.311 314.656,349.625 356.200 C 304.715 395.326,233.518 369.039,225.796 310.480 C 219.239 260.754,260.754 219.239,310.480 225.796 M293.623 250.420 C 259.860 254.657,240.016 291.800,255.275 322.200 C 273.760 359.028,326.240 359.028,344.725 322.200 C 362.460 286.867,332.995 245.479,293.623 250.420 " stroke="none" fill="#ebebfb" fill-rule="evenodd"></path></g></svg>